<svg width="81" height="77" viewBox="0 0 81 77" fill="none" xmlns="http://www.w3.org/2000/svg">
<g filter="url(#filter0_d_399_81)">
<rect x="11.8" y="11.8" width="57" height="53" rx="5" fill="url(#paint0_linear_399_81)"/>
</g>
<path fill-rule="evenodd" clip-rule="evenodd" d="M53.8 46.0524C53.7982 46.1261 53.7912 46.1996 53.7792 46.2724C53.8105 46.4394 53.8058 46.6115 53.7654 46.7764C53.7249 46.9413 53.6497 47.0949 53.5452 47.2262C53.4407 47.3575 53.3095 47.4632 53.1609 47.5359C53.0123 47.6085 52.85 47.6461 52.6857 47.6462H31.8857C31.6418 47.6462 31.4003 47.6959 31.175 47.7926C30.9497 47.8892 30.745 48.0309 30.5725 48.2095C30.4001 48.388 30.2633 48.6 30.1699 48.8334C30.0766 49.0667 30.0286 49.3167 30.0286 49.5693C30.0286 49.8218 30.0766 50.0719 30.1699 50.3052C30.2633 50.5385 30.4001 50.7505 30.5725 50.9291C30.745 51.1077 30.9497 51.2493 31.175 51.346C31.4003 51.4426 31.6418 51.4924 31.8857 51.4924H52.6857C52.9812 51.4924 53.2647 51.6139 53.4736 51.8303C53.6826 52.0467 53.8 52.3402 53.8 52.6462C53.8 52.9522 53.6826 53.2457 53.4736 53.4621C53.2647 53.6785 52.9812 53.8 52.6857 53.8H31.8857C30.8021 53.8 29.7629 53.3543 28.9967 52.5609C28.2305 51.7675 27.8 50.6914 27.8 49.5693V28.0308C27.8 26.9087 28.2305 25.8326 28.9967 25.0392C29.7629 24.2458 30.8021 23.8 31.8857 23.8H51.7943C52.9026 23.8 53.8 24.7293 53.8 25.877V46.0524ZM36.3429 29.9539C36.0473 29.9539 35.7639 30.0755 35.5549 30.2918C35.346 30.5082 35.2286 30.8017 35.2286 31.1077C35.2286 31.4138 35.346 31.7072 35.5549 31.9236C35.7639 32.14 36.0473 32.2616 36.3429 32.2616H45.2571C45.5527 32.2616 45.8361 32.14 46.0451 31.9236C46.254 31.7072 46.3714 31.4138 46.3714 31.1077C46.3714 30.8017 46.254 30.5082 46.0451 30.2918C45.8361 30.0755 45.5527 29.9539 45.2571 29.9539H36.3429Z" fill="white"/>
<defs>
<filter id="filter0_d_399_81" x="2.86102e-06" y="4.86374e-05" width="80.6" height="76.6" filterUnits="userSpaceOnUse" color-interpolation-filters="sRGB">
<feFlood flood-opacity="0" result="BackgroundImageFix"/>
<feColorMatrix in="SourceAlpha" type="matrix" values="0 0 0 0 0 0 0 0 0 0 0 0 0 0 0 0 0 0 127 0" result="hardAlpha"/>
<feOffset/>
<feGaussianBlur stdDeviation="5.9"/>
<feComposite in2="hardAlpha" operator="out"/>
<feColorMatrix type="matrix" values="0 0 0 0 0.262745 0 0 0 0 0.8 0 0 0 0 0.647059 0 0 0 0.25 0"/>
<feBlend mode="normal" in2="BackgroundImageFix" result="effect1_dropShadow_399_81"/>
<feBlend mode="normal" in="SourceGraphic" in2="effect1_dropShadow_399_81" result="shape"/>
</filter>
<linearGradient id="paint0_linear_399_81" x1="11.8" y1="18.3506" x2="42.9305" y2="70.4487" gradientUnits="userSpaceOnUse">
<stop stop-color="#43CCA5"/>
<stop offset="1" stop-color="#226653"/>
</linearGradient>
</defs>
</svg>
